# xmcd CD database file
#
# Track frame offsets:
#	150
#	13492
#	23520
#	37215
#	47087
#	61595
#	73967
#	86785
#	100725
#	112845
#	124475
#	137480
#	148192
#	160502
#	172530
#	183552
#	197020
#	209320
#	222150
#	235192
#	247950
#	262625
#	280467
#	293247
#	305507
#
# Disc length: 4290 seconds
#
# Revision: 0
# Processed by: cddbd v1.4PL0 Copyright (c) Steve Scherf et al.
# Submitted via: CDex 1.50
#
DISCID=6810c019
DTITLE=Various Artist - Okie From Muskogee
DYEAR=1900
DGENRE=Country
TTITLE0=i'm a lonesome fugitive- merle haggard
TTITLE1=mama tried- merle haggard
TTITLE2=cotton jenny- anne murray
TTITLE3=snowbird- anne murray
TTITLE4=rhinestone cowboy- glen campbell
TTITLE5=by the time i get to phoenix- glen campbell
TTITLE6=route 66- asleep at the wheel
TTITLE7=miles and miles of texas- asleep at the wheel
TTITLE8=the key's in the mailbox- buck owens
TTITLE9=hank and lefty raised my country soul- stoney edwards
TTITLE10=swinging door- merle haggard
TTITLE11=today i started loving you again- merle haggard
TTITLE12=okie from muskogee- merle haggard
TTITLE13=walk right back- anne murray
TTITLE14=daydream believer- anne murray
TTITLE15=leona- sawyer brown
TTITLE16=crying time- buck owens and emmylou harris
TTITLE17=under your spell again- buck owens and dwight yoakam
TTITLE18=i wish that i could fall in love today- barbara mandrell
TTITLE19=tennessee waltz- anne murray
TTITLE20=could i have this dance- anne murray
TTITLE21=paper rosie- gene watson
TTITLE22=shot full of love- don williams
TTITLE23=honky tonk amnesia- scott mcquaig
TTITLE24=on second thought- eddie rabbitt
EXTD=
EXTT0=
EXTT1=
EXTT2=
EXTT3=
EXTT4=
EXTT5=
EXTT6=
EXTT7=
EXTT8=
EXTT9=
EXTT10=
EXTT11=
EXTT12=
EXTT13=
EXTT14=
EXTT15=
EXTT16=
EXTT17=
EXTT18=
EXTT19=
EXTT20=
EXTT21=
EXTT22=
EXTT23=
EXTT24=
PLAYORDER=
